<mxfile host="app.diagrams.net" modified="2022-05-18T03:20:06.499Z" agent="5.0 (X11; Linux x86_64) AppleWebKit/537.36 (KHTML, like Gecko) Chrome/101.0.0.0 Safari/537.36" etag="ZVjA2dajkTceNdwJxi1L" version="18.0.6" type="github">
  <diagram id="eHawG1xxn_Mv-iS-OTRj" name="Page-1">
    <mxGraphModel dx="2272" dy="739" grid="1" gridSize="10" guides="1" tooltips="1" connect="1" arrows="1" fold="1" page="1" pageScale="1" pageWidth="850" pageHeight="1100" math="0" shadow="0">
      <root>
        <mxCell id="0" />
        <mxCell id="1" parent="0" />
        <mxCell id="Ix3dZCWWfxYNEPkjoPJy-1" value="DataPower" style="rounded=0;whiteSpace=wrap;html=1;" vertex="1" parent="1">
          <mxGeometry x="160" y="200" width="120" height="440" as="geometry" />
        </mxCell>
        <mxCell id="Ix3dZCWWfxYNEPkjoPJy-2" value="AuthService" style="rounded=0;whiteSpace=wrap;html=1;" vertex="1" parent="1">
          <mxGeometry x="400" y="200" width="160" height="200" as="geometry" />
        </mxCell>
        <mxCell id="Ix3dZCWWfxYNEPkjoPJy-3" value="" style="endArrow=classic;startArrow=classic;html=1;rounded=0;entryX=0.017;entryY=0.55;entryDx=0;entryDy=0;exitX=1;exitY=0.25;exitDx=0;exitDy=0;entryPerimeter=0;" edge="1" parent="1" target="Ix3dZCWWfxYNEPkjoPJy-2" source="Ix3dZCWWfxYNEPkjoPJy-1">
          <mxGeometry width="50" height="50" relative="1" as="geometry">
            <mxPoint x="280" y="240" as="sourcePoint" />
            <mxPoint x="530" y="390" as="targetPoint" />
          </mxGeometry>
        </mxCell>
        <mxCell id="Ix3dZCWWfxYNEPkjoPJy-4" value="End-User" style="rounded=0;whiteSpace=wrap;html=1;" vertex="1" parent="1">
          <mxGeometry x="-80" y="200" width="120" height="440" as="geometry" />
        </mxCell>
        <mxCell id="Ix3dZCWWfxYNEPkjoPJy-5" value="" style="endArrow=classic;html=1;rounded=0;exitX=1;exitY=0.5;exitDx=0;exitDy=0;entryX=0;entryY=0.5;entryDx=0;entryDy=0;" edge="1" parent="1" source="Ix3dZCWWfxYNEPkjoPJy-4" target="Ix3dZCWWfxYNEPkjoPJy-1">
          <mxGeometry width="50" height="50" relative="1" as="geometry">
            <mxPoint x="400" y="400" as="sourcePoint" />
            <mxPoint x="450" y="350" as="targetPoint" />
          </mxGeometry>
        </mxCell>
        <mxCell id="Ix3dZCWWfxYNEPkjoPJy-6" value="JWT" style="text;html=1;align=center;verticalAlign=middle;resizable=0;points=[];autosize=1;strokeColor=none;fillColor=none;" vertex="1" parent="1">
          <mxGeometry x="70" y="390" width="40" height="20" as="geometry" />
        </mxCell>
        <mxCell id="Ix3dZCWWfxYNEPkjoPJy-7" value="subscription, scope" style="text;html=1;align=center;verticalAlign=middle;resizable=0;points=[];autosize=1;strokeColor=none;fillColor=none;" vertex="1" parent="1">
          <mxGeometry x="40" y="430" width="120" height="20" as="geometry" />
        </mxCell>
        <mxCell id="Ix3dZCWWfxYNEPkjoPJy-8" value="Open GW&amp;nbsp;" style="rounded=0;whiteSpace=wrap;html=1;" vertex="1" parent="1">
          <mxGeometry x="400" y="440" width="160" height="200" as="geometry" />
        </mxCell>
        <mxCell id="Ix3dZCWWfxYNEPkjoPJy-11" value="" style="endArrow=classic;html=1;rounded=0;exitX=1;exitY=0.75;exitDx=0;exitDy=0;" edge="1" parent="1" source="Ix3dZCWWfxYNEPkjoPJy-1">
          <mxGeometry width="50" height="50" relative="1" as="geometry">
            <mxPoint x="280" y="480" as="sourcePoint" />
            <mxPoint x="400" y="530" as="targetPoint" />
          </mxGeometry>
        </mxCell>
        <mxCell id="Ix3dZCWWfxYNEPkjoPJy-18" value="Rate Limit, BandWidth" style="rounded=0;whiteSpace=wrap;html=1;" vertex="1" parent="1">
          <mxGeometry x="425" y="575" width="110" height="50" as="geometry" />
        </mxCell>
      </root>
    </mxGraphModel>
  </diagram>
</mxfile>
